<?xml version="1.0" standalone="no"?><!DOCTYPE svg PUBLIC "-//W3C//DTD SVG 1.1//EN" "http://www.w3.org/Graphics/SVG/1.1/DTD/svg11.dtd"><svg t="1595860387332" class="icon" viewBox="0 0 1024 1024" version="1.1" xmlns="http://www.w3.org/2000/svg" p-id="6660" width="64" height="64" xmlns:xlink="http://www.w3.org/1999/xlink"><defs><style type="text/css"></style></defs><path d="M 605.44 750.336 l -95.168 272.64 l -92.8 -272.64 V 539.84 H 605.44 Z" fill="#fee1b9" p-id="6661"></path><path d="M 512.32 1022.98 l 95.168 -272.64 V 539.84 H 512.32 Z" fill="#ffd9ac" p-id="6662"></path><path d="M 249.408 367.104 a 54.336 54.336 0 0 1 38.4 -62.784 c 24.256 -3.392 46.4 19.2 49.792 50.816 a 54.336 54.336 0 0 1 -38.4 62.784 c -24.512 3.456 -46.72 -19.392 -49.792 -50.816 Z" fill="#fee1b9" p-id="6663"></path><path d="M 723.776 417.92 a 51.2 51.2 0 0 1 -36.48 -61.76 c 4.096 -31.36 26.944 -54.912 51.2 -52.224 a 51.2 51.2 0 0 1 36.48 61.76 c -4.16 31.744 -27.008 54.976 -51.2 52.224 Z" fill="#ffd9ac" p-id="6664"></path><path d="M 511.936 109.696 s -199.936 8.512 -199.936 115.2 v 217.024 c 0 41.984 67.904 161.728 128.96 166.848 c 30.72 2.368 70.4 5.824 70.4 5.824 l 70.4 -5.824 c 61.056 -5.12 128 -124.864 128 -166.848 v -211.2 c 1.408 -106.368 -197.824 -121.024 -197.824 -121.024 Z" fill="#fee1b9" p-id="6665"></path><path d="M 511.936 109.696 s -199.936 8.512 -199.936 115.2 v 217.024 c 0 41.984 67.904 161.728 128.96 166.848 c 30.72 2.368 70.4 5.824 70.4 5.824 l 70.4 -5.824 c 61.056 -5.12 128 -124.864 128 -166.848 v -211.2 c 1.408 -106.368 -197.824 -121.024 -197.824 -121.024 Z" fill="#fee1b9" p-id="6666"></path><path d="M 716.288 230.848 v 211.2 c 0 41.984 -67.904 161.728 -128.96 166.848 c -30.72 2.368 -70.4 5.824 -70.4 5.824 v -504.96 s 199.36 14.592 199.36 121.088 Z" fill="#ffd9ac" p-id="6667"></path><path d="M 495.296 1022.98 v -335.36 a 126.592 126.592 0 0 1 -87.36 -75.712 c -7.488 -27.968 -7.488 -21.824 -7.488 6.848 c 0 86.336 -203.008 49.152 -257.92 115.648 c -43.328 60.032 -73.344 288.64 -73.344 288.64 Z" fill="#fee1b9" p-id="6668"></path><path d="M 528.384 1022.98 v -353.152 s 68.224 -1.344 81.216 -34.432 c 4.8 -11.968 12.8 -44.8 12.8 -16.064 c 0 86.336 203.712 48.448 258.624 115.2 c 43.328 60.032 73.344 288.64 73.344 288.64 Z" fill="#ffd9ac" p-id="6669"></path><path d="M 375.872 658.24 s -197.184 25.92 -240.896 80.512 C 99.84 783.104 75.584 972.48 64 1024 h 431.296 v -333.696 Z" fill="#41a3ff" p-id="6670"></path><path d="M 648.448 658.24 s 198.4 26.624 241.92 81.216 c 35.136 44.352 58.368 233.024 69.632 284.544 H 528.704 v -333.696 Z" fill="#0f76d6" p-id="6671"></path><path d="M 508.928 913.088 l 0.32 -235.072 l -121.6 -24.896 L 509.248 1024" fill="#d0d4d7" p-id="6672"></path><path d="M 525.952 747.52 l 27.648 -27.648 l -41.6 -41.6 l -41.28 41.6 l 27.648 27.648 l -37.504 203.008 l 51.2 73.344 l 51.52 -73.344 Z" fill="#436b85" p-id="6673"></path><path d="M 554.688 720 l -41.6 -41.6 l -0.32 0.64 v 343.68 l 0.32 1.024 l 51.52 -73.344 l -37.504 -203.008 Z" fill="#315d76" p-id="6674"></path><path d="M 515.456 683.84 l 97.92 -49.472 l 50.496 29.696 l -82.24 117.376 Z" fill="#d0d4d7" p-id="6675"></path><path d="M 508.864 683.84 l -97.92 -49.472 l -50.496 29.696 l 99.264 117.376 Z" fill="#ffffff" p-id="6676"></path><path d="M 278.144 349.44 h 20.416 l 27.392 -177.408 a 54.336 54.336 0 0 0 -74.816 47.104 a 198.4 198.4 0 0 0 27.008 130.304 Z m 457.472 0 h -20.416 l -27.392 -177.408 a 54.336 54.336 0 0 1 74.816 47.104 a 198.016 198.016 0 0 1 -27.008 130.304 Z" fill="#61402f" p-id="6677"></path><path d="M 300.608 193.984 a 383.552 383.552 0 0 0 207.104 63.104 c 120.32 0 234.048 -34.816 285.824 -129.664 A 500.928 500.928 0 0 1 589.376 33.28 C 448.64 -67.264 184.32 82.048 300.608 193.984 Z" fill="#61402f" p-id="6678"></path></svg>